<svg width="54" height="54" viewBox="0 0 54 54" fill="none" xmlns="http://www.w3.org/2000/svg">
<path d="M54 27C54 41.9117 41.9117 54 27 54C12.0883 54 0 41.9117 0 27C0 12.0883 12.0883 0 27 0C41.9117 0 54 12.0883 54 27Z" fill="#FF853A"/>
<path d="M16.0169 25.078V21.8136H18.0305V18.3356L12.2949 10.5559H10.6169V7.29153H19.4949V10.5559H17.5729L21.3864 15.8949H20.0136L23.9186 10.5559H21.9966V7.29153H30.6305V10.5559H28.9525L23.2169 18.3356V21.8136H25.2305V25.078H16.0169Z" fill="white"/>
<path d="M23.5525 46.8V43.5356H25.261V32.278H23.5525V29.0136H32.1559V32.278H30.4475V37.0068L35.3898 32.278H34.1085V29.0136H42.5593V32.278H40.9729L34.9017 38.0746V36.3661L41.5525 43.5356H43.139V46.8H34.2305V43.5356H35.5119L30.4475 37.9831V43.5356H32.1559V46.8H23.5525Z" fill="white"/>
</svg>
